<svg width="179" height="164" viewBox="0 0 179 164" fill="none" xmlns="http://www.w3.org/2000/svg">
<path d="M20.2138 101.791C17.3091 152.442 45.0243 127.92 41.6356 130.332C64.1466 41.8947 66.3251 31.8449 67.7774 26.2171C97.55 130.332 89.5623 131.136 110.258 144C107.767 114.919 106.814 91.8563 106.735 74.0538M106.735 74.0538C106.612 46.1823 108.633 31.205 110.258 26.2171C132.043 11.4239 142.088 31.5769 144.388 43.5026C114.299 71.8027 106.749 75.6618 106.735 74.0538ZM106.735 74.0538C144.119 130.011 157.822 144 160 144" stroke="#C6C5FF" stroke-width="10"/>
<path d="M45 100C89.4874 63.5305 102.87 62.5669 104 66.6438" stroke="#C6C5FF" stroke-width="10"/>
</svg>
