<svg width="145" height="219" viewBox="0 0 145 219" fill="none" xmlns="http://www.w3.org/2000/svg">
<path d="M5 136.779C5 136.779 5 101.044 5 78.1474M68.2689 136.779V78.1474M68.2689 136.779C68.2689 136.779 115.452 146.61 127.963 136.779C140.474 126.947 136.721 85.1189 127.963 78.1474C119.206 71.1759 91.581 64.4049 68.2689 78.1474M68.2689 136.779C68.2689 136.779 71.3072 193.086 59.69 214M68.2689 136.779C90.2448 169.485 117.101 196.474 142 214M68.2689 78.1474V19.5162C42.0092 0.795776 28.0523 -0.463039 5 19.5162C5 19.5162 5 55.2505 5 78.1474M68.2689 78.1474C43.5609 88.4444 29.708 86.85 5 78.1474" stroke="#FFAFAF" stroke-width="10"/>
</svg>
