<svg width="15" height="32" viewBox="0 0 15 32" fill="none" xmlns="http://www.w3.org/2000/svg">
<path d="M2.80371 -6.67572e-06V1.98419H6.4611V4.12432H8.52304V5.71933H10.4295V7.58668H12.2582V11.4387H14.2424V-6.67572e-06H2.80371Z" fill="#DC4654"/>
<path d="M6.81481 6.47197L6.37176 6.02501C2.46374 8.89792 0 14 0 19.6685C0 24.1282 1.60021 28.1652 4.18558 31.0837L5.58772 29.6408C3.05492 26.8304 1.47816 22.8968 1.47816 18.54C1.47816 13.5822 3.64522 9.30015 6.81481 6.47197Z" fill="#232323"/>
<path d="M2.80071 17.379C2.80071 13.2386 4.55252 9.52649 7.32509 6.99368L6.92938 6.59406C3.73807 9.35013 1.78906 13.7716 1.78906 18.6235C1.78906 22.8395 3.34193 26.6493 5.84172 29.3845L7.372 27.8091C4.5725 25.2745 2.80071 21.5433 2.80071 17.379Z" fill="#232323"/>
<path d="M4.45101 16.2064C4.45101 12.8205 5.78148 9.83946 7.7926 7.46433L7.44294 7.11075C4.82717 9.60707 3.28125 13.2645 3.28125 17.2242C3.28125 21.2855 5.00439 24.9316 7.73874 27.4353L8.85464 26.2868C6.15156 23.8048 4.45101 20.2087 4.45101 16.2064Z" fill="#232323"/>
<path d="M4.94922 16.2049C4.94922 20.0721 6.54813 23.5588 9.10873 26.0291L10.5552 24.5396C7.80606 22.1953 6.0725 18.782 6.0725 14.9791C6.0725 12.3794 6.88737 9.96523 8.27779 7.94672L7.96765 7.63354C6.08336 9.96957 4.94922 12.9511 4.94922 16.2049Z" fill="#232323"/>
</svg>
