<svg width="760" height="1083" viewBox="0 0 760 1083" fill="none" xmlns="http://www.w3.org/2000/svg">
<path d="M138.21 876.86L77.5882 907.108V325.376C77.5882 269.665 93.6606 215.443 124.07 168.574C128.875 161.168 126.617 151.364 119.025 146.678C111.434 141.991 101.385 144.191 96.578 151.599C62.8692 203.553 45.0528 263.645 45.0528 325.376V927.823C16.708 952.098 0 987.247 0 1025.23V1066.21C0 1074.98 7.28358 1082.08 16.2677 1082.08C25.2518 1082.08 32.5354 1074.98 32.5354 1066.21V1025.23C32.5354 988.228 53.5142 954.773 87.2815 937.923L153.025 905.121C161.024 901.128 164.191 891.568 160.1 883.765C156.009 875.961 146.205 872.876 138.21 876.86Z" fill="#16856F"/>
<path d="M712.117 925.474V818.929C712.117 810.162 704.835 803.059 695.849 803.059C686.863 803.059 679.581 810.162 679.581 818.929V905.696L482.591 807.407V800.706C508.636 787.026 532.613 769.518 553.943 748.492C555.561 748.035 557.181 747.597 558.799 747.127C574.863 742.466 587.741 730.464 593.243 715.023C596.54 705.772 599.358 696.475 601.733 687.137C627.72 642.767 641.474 592.335 641.474 541.102V324.832C641.474 318.273 637.337 312.39 631.065 310.027C592.094 295.348 552.455 283.943 513.25 276.127C511.692 275.816 510.389 274.756 509.762 273.285L491.842 231.329C487.556 221.3 477.593 214.736 466.453 214.611C455.426 214.493 445.194 220.819 440.672 230.747L426.743 261.325C425.908 263.149 423.975 264.275 421.893 264.159C324.49 258.039 225.795 273.475 128.536 310.025C122.257 312.384 118.116 318.271 118.116 324.835V541.411C118.116 590.367 130.742 638.831 154.604 681.75C157.194 692.774 160.395 703.781 164.232 714.763C169.683 730.366 182.599 742.485 198.791 747.182C201.249 747.895 203.71 748.57 206.168 749.253C227.479 770.159 251.418 787.557 277.41 801.161V807.413L200.344 845.865C192.345 849.858 189.178 859.418 193.269 867.222C196.147 872.713 201.852 875.87 207.764 875.87C210.257 875.87 212.788 875.307 215.159 874.126L280.644 841.453C291.699 882.313 329.9 912.533 375.211 912.533H384.792C430.1 912.533 468.303 882.313 479.359 841.453L672.719 937.931C706.486 954.779 727.465 988.23 727.465 1025.23V1066.21C727.465 1074.98 734.746 1082.08 743.732 1082.08C752.719 1082.08 760 1074.98 760 1066.21V1025.23C759.998 986 742.173 949.798 712.117 925.474ZM150.652 541.407V476.436L169.351 500.816C167.108 504.248 165.26 507.966 163.887 511.929C158.393 527.812 154.218 543.747 151.331 559.71C150.893 553.627 150.652 547.522 150.652 541.407ZM607.407 568.851C604.529 550 599.881 531.071 593.439 512.105C592.285 508.705 590.771 505.491 588.97 502.471L608.936 476.44V541.105C608.938 550.396 608.409 559.655 607.407 568.851ZM562.556 522.084C564.554 527.969 566.361 533.849 567.979 539.723C442.971 531.773 315.771 531.809 189.193 539.816C190.835 533.898 192.672 527.983 194.713 522.08C196.822 515.988 202.149 511.225 208.615 509.648C265.565 495.778 322.671 488.846 379.558 488.846C436.291 488.846 492.805 495.746 548.685 509.543C555.158 511.142 560.472 515.948 562.556 522.084ZM182.242 572.061C313.474 563.358 445.45 563.329 574.959 571.975C579.477 600.625 579.433 629.051 574.826 657.079C444.687 667.24 312.945 667.249 182.803 657.1C178.062 628.784 177.873 600.382 182.242 572.061ZM419.802 295.831C435.367 296.779 450.129 288.129 456.471 274.216L465.989 253.325L479.728 285.49C484.504 296.675 494.598 304.8 506.732 307.221C540.692 313.994 575.021 323.597 608.938 335.806V423.462L564.508 481.385C561.99 480.334 559.378 479.445 556.667 478.774C439.503 449.84 319.747 449.868 200.735 478.855C198.631 479.367 196.581 480.004 194.592 480.748L150.652 423.46V335.81C240.098 303.683 330.583 290.219 419.802 295.831ZM190.226 689.483C252.826 694.122 315.751 696.496 378.705 696.496C441.726 696.496 504.752 694.113 567.421 689.464C565.933 694.526 564.306 699.572 562.513 704.6C560.437 710.421 555.583 714.947 549.522 716.706C436.234 749.586 321.35 749.601 208.062 716.754C201.958 714.983 197.084 710.408 195.028 704.52C193.277 699.513 191.688 694.5 190.226 689.483ZM378.71 773.141C412.928 773.141 447.147 770.327 481.287 764.719C450.35 783.475 415.722 795.873 378.753 801.186C342.63 795.72 308.772 783.452 278.446 765.096C311.821 770.454 345.265 773.141 378.71 773.141ZM384.789 880.787H375.209C339.22 880.787 309.943 852.226 309.943 817.117V815.793C331.11 823.844 353.317 829.64 376.35 832.932C377.13 833.044 382.857 832.678 382.857 832.678C406.169 829.375 428.656 823.563 450.051 815.393V817.117C450.055 852.226 420.778 880.787 384.789 880.787Z" fill="#16856F"/>
<path d="M165.381 118.11C222.277 62.413 297.993 31.7397 378.586 31.7397C544.555 31.7397 679.581 163.464 679.581 325.376V751.298C679.581 760.064 686.863 767.168 695.849 767.168C704.835 767.168 712.117 760.064 712.117 751.298V325.376C712.117 145.962 562.495 0 378.586 0C289.283 0 205.38 33.989 142.336 95.7058C135.993 101.914 136.011 111.963 142.377 118.148C148.739 124.339 159.037 124.32 165.381 118.11Z" fill="#16856F"/>
</svg>
