<svg width="176" height="176" viewBox="0 0 176 176" fill="none" xmlns="http://www.w3.org/2000/svg">
<path d="M62.1 149.9L87.8 175.6L113.5 149.9H149.9V113.5L175.6 87.8L149.9 62.1V25.7H113.5L87.8 0L62.1 25.7H25.7V62.1L0 87.8L25.7 113.5V149.9H62.1Z" fill="#FBBC05"/>
<path d="M90.6008 60.2998L90.5008 60.6998L78.6008 113.2L78.2008 115.2H85.6008L85.7008 114.8L97.6008 62.2998L98.0008 60.2998H90.6008ZM71.7008 67.4998L70.7008 68.1998L49.2008 84.8998L47.8008 85.9998V89.3998L49.2008 90.4998L70.7008 107.2L71.7008 107.9V98.8998L57.2008 87.7998L71.7008 76.4998V67.4998ZM103.901 67.4998V76.4998L118.401 87.7998L103.901 99.0998V108.1L104.901 107.4L126.401 90.6998L127.801 89.5998V86.1998L126.401 85.0998L104.801 68.2998L103.901 67.4998Z" fill="white"/>
<path d="M87.7996 146.5C120.219 146.5 146.5 120.219 146.5 87.7996C146.5 55.3805 120.219 29.0996 87.7996 29.0996C55.3805 29.0996 29.0996 55.3805 29.0996 87.7996C29.0996 120.219 55.3805 146.5 87.7996 146.5Z" stroke="white" stroke-width="8"/>
</svg>
