<svg width="750" height="750" viewBox="0 0 750 750" fill="none" xmlns="http://www.w3.org/2000/svg">
<g clip-path="url(#clip0_1206_9)">
<path d="M5 544.154V5H745V745H205.846L5 544.154Z" stroke="white" stroke-width="10"/>
<path d="M198.775 551.225V737.929L12.0711 551.225H198.775Z" stroke="white" stroke-width="10"/>
<path d="M456.15 163.125H293.85C275.5 163.125 260.625 177.984 260.625 196.312C260.625 214.641 275.5 229.5 293.85 229.5H456.15C474.5 229.5 489.375 214.641 489.375 196.312C489.375 177.984 474.5 163.125 456.15 163.125Z" fill="white"/>
<path d="M458.025 229.5H291.975V362.55H458.025V229.5Z" fill="white"/>
<path d="M305.925 360H444.075C464.855 359.98 484.794 368.206 499.516 382.871C514.238 397.537 522.54 417.445 522.6 438.225C522.6 442.86 520.759 447.305 517.482 450.582C514.204 453.859 509.76 455.7 505.125 455.7H244.875C240.24 455.7 235.795 453.859 232.518 450.582C229.241 447.305 227.4 442.86 227.4 438.225C227.459 417.445 235.761 397.537 250.483 382.871C265.205 368.206 285.145 359.98 305.925 360Z" fill="white"/>
<path d="M382.5 580.2L401.7 386.775C401.805 385.729 401.689 384.672 401.359 383.674C401.03 382.676 400.494 381.758 399.787 380.98C399.08 380.202 398.217 379.581 397.254 379.158C396.292 378.736 395.251 378.52 394.2 378.525H355.8C354.748 378.52 353.708 378.736 352.745 379.158C351.783 379.581 350.92 380.202 350.213 380.98C349.505 381.758 348.97 382.676 348.64 383.674C348.311 384.672 348.195 385.729 348.3 386.775L367.5 580.2C367.5 582.189 368.29 584.097 369.697 585.503C371.103 586.91 373.011 587.7 375 587.7C376.989 587.7 378.897 586.91 380.303 585.503C381.71 584.097 382.5 582.189 382.5 580.2Z" fill="white"/>
<path d="M326.175 229.65H326.1C322.041 229.65 318.75 232.941 318.75 237V355.125C318.75 359.184 322.041 362.475 326.1 362.475H326.175C330.234 362.475 333.525 359.184 333.525 355.125V237C333.525 232.941 330.234 229.65 326.175 229.65Z" fill="#E5E5E5"/>
</g>
<defs>
<clipPath id="clip0_1206_9">
<rect width="750" height="750" fill="white"/>
</clipPath>
</defs>
</svg>
