<svg width="250" height="286" viewBox="0 0 250 286" fill="none" xmlns="http://www.w3.org/2000/svg">
<g clip-path="url(#clip0_1207_87)">
<mask id="mask0_1207_87" style="mask-type:luminance" maskUnits="userSpaceOnUse" x="0" y="0" width="245" height="286">
<path d="M244.249 0H0V285.714H244.249V0Z" fill="white"/>
</mask>
<g mask="url(#mask0_1207_87)">
<path d="M244.469 68.7732V276.619C244.469 281.646 240.65 285.714 235.949 285.714H8.741C4.03354 285.714 0.220705 281.646 0.220705 276.619V68.7732C0.220223 68.0155 0.308392 67.2601 0.483415 66.5226" stroke="white" stroke-width="5"/>
<path d="M59.4914 61.4751L59.4914 61.4751C57.8605 63.1061 55.6485 64.022 53.3416 64.022H7.09582L9.35502 61.6506L9.35541 61.6502L59.0552 9.45829L59.0572 9.45616L62.0389 6.33227V55.3252C62.0389 57.6317 61.1226 59.8439 59.4914 61.4751Z" stroke="white" stroke-width="5"/>
<path d="M176.249 212.823L187.446 225.483L193.836 219.902L182.582 207.199C194.021 196.291 202.275 182.474 206.46 167.232C210.722 152.019 210.626 135.915 206.183 120.754C201.85 105.504 193.457 91.7173 181.9 80.8649C149.012 49.7018 99.4949 48.5941 64.7533 78.2661C30.5301 107.498 24.2605 157.001 50.3043 194.348C63.1985 212.809 80.7926 224.922 102.846 229.807C129.934 235.814 154.429 229.438 176.249 212.823ZM64.6682 200.398C33.9311 169.462 34.7121 116.501 66.4503 86.5518C99.4378 55.4316 151.405 57.4055 181.68 91.1887C211.16 124.091 206.616 174.183 177.654 201.647L160.465 182.022C172.173 169.561 177.74 154.764 175.496 137.504C173.693 123.615 167.118 112.127 156.474 103.082C135.103 84.9191 104.713 86.0976 84.3003 105.744C64.3128 124.971 62.1545 155.162 79.2235 177.251C96.4842 199.588 128.656 206.397 154.075 187.66L171.2 207.214C144.234 229.857 95.9449 231.887 64.6682 200.398ZM138.369 156.44C140.084 154.296 141.314 151.806 141.974 149.141C142.633 146.476 142.706 143.7 142.188 141.004C141.241 135.93 138.461 131.382 134.378 128.223C126.454 121.833 115.825 122.238 108.107 129.253C100.39 136.268 98.9765 146.876 104.721 155.432C109.975 163.242 120.547 168.496 131.893 162.177L149.175 181.908C133.115 194.462 104.373 194.547 87.1193 175.376C70.4973 156.916 71.9741 126.924 90.3997 109.983C108.825 93.0417 138.816 94.2346 155.942 112.56C173.437 131.283 171.157 160.551 155.7 176.221L138.369 156.44ZM121.193 157.15C113.624 156.78 108.604 151.157 109.052 143.567C109.499 135.977 115.009 131.127 122.543 131.496C130.076 131.866 135.117 137.475 134.676 145.086C134.237 152.698 128.762 157.533 121.193 157.164V157.15Z" fill="white"/>
<path d="M208.233 236.196L137.658 156.955L131.136 162.764L201.712 242.004L208.233 236.196Z" fill="white"/>
<path d="M200.026 252.52L212.991 267.055L214.873 249.773L232.254 249.872L219.289 235.338L201.908 235.238L200.026 252.52Z" fill="white"/>
<path d="M65 2H242.5L242 97" stroke="white" stroke-width="5" stroke-linecap="round" stroke-linejoin="round"/>
</g>
</g>
<defs>
<clipPath id="clip0_1207_87">
<rect width="250" height="285.714" fill="white"/>
</clipPath>
</defs>
</svg>
