<svg width="500" height="500" viewBox="0 0 500 500" fill="none" xmlns="http://www.w3.org/2000/svg">
<g clip-path="url(#clip0_3_75)">
<path opacity="0.72" d="M394.74 101.97L384.08 91.31L309.21 16.44C301.74 8.95 286.18 0 273.03 0C261.72 0 250.62 2.26 243.43 6.58L85.53 85.53L6.58 250C3.76 255.98 0 266.38 0 273.03C0 287.39 6.32 302.09 16.45 312.5L115.13 411.18H500V207.24L394.74 101.97Z" fill="#0D0D0D"/>
<path opacity="0.72" d="M85.5298 85.53V351.98C85.5298 378.37 88.8398 384.84 101.98 398.03L203.95 500H411.19V411.18L85.5298 85.53Z" fill="#0D0D0D"/>
<path opacity="0.72" d="M394.74 101.97L309.21 16.44C301.74 8.95 286.18 0 273.03 0C261.72 0 250.62 2.26 243.43 6.58L85.5298 85.53H348.69C366.82 85.53 379.95 87.13 394.74 101.97Z" fill="#0D0D0D"/>
</g>
<defs>
<clipPath id="clip0_3_75">
<rect width="500" height="500" fill="white"/>
</clipPath>
</defs>
</svg>
