<svg width="713" height="713" viewBox="0 0 713 713" fill="none" xmlns="http://www.w3.org/2000/svg">
<path fill-rule="evenodd" clip-rule="evenodd" d="M297.86 219.53L413.14 286.27V419.82L297.86 353.05V219.53Z" fill="#0D0D0D"/>
<path fill-rule="evenodd" clip-rule="evenodd" d="M425.771 286.27V419.82L541.021 353.05V219.53L425.771 286.27Z" fill="#0D0D0D"/>
<path fill-rule="evenodd" clip-rule="evenodd" d="M170 145V278.52L285.25 345.29V211.78L170 145.01V145Z" fill="#0D0D0D"/>
<path fill-rule="evenodd" clip-rule="evenodd" d="M297.86 501.18L413.11 567.95V434.44L297.86 367.67V501.18Z" fill="#0D0D0D"/>
<path fill-rule="evenodd" clip-rule="evenodd" d="M617.37 29.68H94.98C77.86 29.68 66.8199 29.7 58.4099 30.39C50.3499 31.05 47.3599 32.17 45.8899 32.91C40.2999 35.76 35.7699 40.3 32.9099 45.89C32.1699 47.36 31.0499 50.34 30.3899 58.41C29.7099 66.82 29.6799 77.87 29.6799 94.98V617.37C29.6799 634.49 29.6999 645.53 30.3899 653.94C31.0499 662 32.1699 664.99 32.9099 666.46C35.7599 672.05 40.2999 676.58 45.8899 679.44C47.3599 680.18 50.3399 681.3 58.4099 681.96C66.8199 682.64 77.87 682.67 94.98 682.67H617.37C634.49 682.67 645.53 682.65 653.94 681.96C662 681.3 664.99 680.18 666.46 679.44C672.05 676.59 676.58 672.05 679.44 666.46C680.18 664.99 681.3 662.01 681.96 653.94C682.64 645.53 682.67 634.48 682.67 617.37V94.98C682.67 77.86 682.65 66.82 681.96 58.41C681.3 50.35 680.18 47.36 679.44 45.89C676.59 40.3 672.05 35.77 666.46 32.91C664.99 32.17 662.01 31.05 653.94 30.39C645.53 29.71 634.48 29.68 617.37 29.68ZM6.46997 32.41C-2.90871e-05 45.11 0 61.74 0 94.98V617.37C0 650.61 -2.90871e-05 667.24 6.46997 679.94C12.16 691.11 21.2399 700.19 32.4099 705.88C45.1099 712.35 61.74 712.35 94.98 712.35H617.37C650.61 712.35 667.24 712.35 679.94 705.88C691.11 700.19 700.19 691.11 705.88 679.94C712.35 667.24 712.35 650.61 712.35 617.37V94.98C712.35 61.74 712.35 45.11 705.88 32.41C700.19 21.25 691.11 12.16 679.94 6.47C667.24 1.43051e-06 650.61 0 617.37 0H94.98C61.74 0 45.1099 1.43051e-06 32.4099 6.47C21.2499 12.16 12.16 21.24 6.46997 32.41Z" fill="#0D0D0D"/>
</svg>
