{
  "asset": {
    "version": "2.0",
    "generator": "THREE.GLTFExporter"
  },
  "scenes": [
    {
      "name": "AuxScene",
      "nodes": [
        15
      ]
    }
  ],
  "scene": 0,
  "nodes": [
    {
      "mesh": 0
    },
    {
      "children": [
        0
      ]
    },
    {
      "children": [
        1
      ]
    },
    {
      "mesh": 1
    },
    {
      "children": [
        3
      ]
    },
    {
      "matrix": [
        1,
        0,
        0,
        0,
        0,
        1,
        0,
        0,
        0,
        0,
        1,
        0,
        0,
        0,
        -0.09522696055446278,
        1
      ],
      "children": [
        4
      ]
    },
    {
      "mesh": 2
    },
    {
      "children": [
        6
      ]
    },
    {
      "matrix": [
        1,
        0,
        0,
        0,
        0,
        1,
        0,
        0,
        0,
        0,
        1,
        0,
        0,
        0,
        -0.08609192721374978,
        1
      ],
      "children": [
        7
      ]
    },
    {
      "mesh": 3
    },
    {
      "children": [
        9
      ]
    },
    {
      "matrix": [
        1,
        0,
        0,
        0,
        0,
        1,
        0,
        0,
        0,
        0,
        1,
        0,
        0,
        0,
        -0.07727214258232568,
        1
      ],
      "children": [
        10
      ]
    },
    {
      "mesh": 4
    },
    {
      "children": [
        12
      ]
    },
    {
      "matrix": [
        1,
        0,
        0,
        0,
        0,
        1,
        0,
        0,
        0,
        0,
        1,
        0,
        0,
        0,
        -0.07046767686921539,
        1
      ],
      "children": [
        13
      ]
    },
    {
      "matrix": [
        0.003940518674796197,
        0,
        0,
        0,
        0,
        -0.003940518674796197,
        0,
        0,
        0,
        0,
        0.003940518674796197,
        0,
        -1.960408040711108,
        4.574942181438384,
        0,
        1
      ],
      "extras": {
        "svgImageTarget": {
          "width": 878,
          "height": 2048,
          "depth": 1,
          "scissor": {
            "x": 0,
            "y": 0,
            "z": 878,
            "w": 2048
          },
          "scissorTest": false,
          "viewport": {
            "x": 0,
            "y": 0,
            "z": 878,
            "w": 2048
          },
          "texture": {
            "metadata": {
              "version": 4.5,
              "type": "Texture",
              "generator": "Texture.toJSON"
            },
            "uuid": "F169B0AA-72A1-405F-BED5-9E57A982011A",
            "name": "",
            "mapping": 300,
            "repeat": [
              1,
              1
            ],
            "offset": [
              0,
              0
            ],
            "center": [
              0,
              0
            ],
            "rotation": 0,
            "wrap": [
              1001,
              1001
            ],
            "format": 1023,
            "type": 1009,
            "encoding": 3000,
            "minFilter": 1003,
            "magFilter": 1006,
            "anisotropy": 1,
            "flipY": true,
            "premultiplyAlpha": false,
            "unpackAlignment": 4,
            "image": "DDD832BE-391E-4879-BD8F-8A59972FD2EC"
          },
          "depthBuffer": false,
          "stencilBuffer": false,
          "depthTexture": null,
          "_listeners": {
            "dispose": [
              null
            ]
          }
        }
      },
      "children": [
        2,
        5,
        8,
        11,
        14
      ]
    }
  ],
  "bufferViews": [
    {
      "buffer": 0,
      "byteOffset": 0,
      "byteLength": 4176,
      "target": 34962,
      "byteStride": 12
    },
    {
      "buffer": 0,
      "byteOffset": 4176,
      "byteLength": 2784,
      "target": 34962,
      "byteStride": 8
    },
    {
      "buffer": 0,
      "byteOffset": 6960,
      "byteLength": 4176,
      "target": 34962,
      "byteStride": 12
    },
    {
      "buffer": 0,
      "byteOffset": 11136,
      "byteLength": 17856,
      "target": 34962,
      "byteStride": 12
    },
    {
      "buffer": 0,
      "byteOffset": 28992,
      "byteLength": 11904,
      "target": 34962,
      "byteStride": 8
    },
    {
      "buffer": 0,
      "byteOffset": 40896,
      "byteLength": 17856,
      "target": 34962,
      "byteStride": 12
    },
    {
      "buffer": 0,
      "byteOffset": 58752,
      "byteLength": 17856,
      "target": 34962,
      "byteStride": 12
    },
    {
      "buffer": 0,
      "byteOffset": 76608,
      "byteLength": 11904,
      "target": 34962,
      "byteStride": 8
    },
    {
      "buffer": 0,
      "byteOffset": 88512,
      "byteLength": 17856,
      "target": 34962,
      "byteStride": 12
    },
    {
      "buffer": 0,
      "byteOffset": 106368,
      "byteLength": 17856,
      "target": 34962,
      "byteStride": 12
    },
    {
      "buffer": 0,
      "byteOffset": 124224,
      "byteLength": 11904,
      "target": 34962,
      "byteStride": 8
    },
    {
      "buffer": 0,
      "byteOffset": 136128,
      "byteLength": 17856,
      "target": 34962,
      "byteStride": 12
    },
    {
      "buffer": 0,
      "byteOffset": 153984,
      "byteLength": 17856,
      "target": 34962,
      "byteStride": 12
    },
    {
      "buffer": 0,
      "byteOffset": 171840,
      "byteLength": 11904,
      "target": 34962,
      "byteStride": 8
    },
    {
      "buffer": 0,
      "byteOffset": 183744,
      "byteLength": 17856,
      "target": 34962,
      "byteStride": 12
    }
  ],
  "buffers": [
    {
      "byteLength": 201600,
      "uri": "data:application/octet-stream;base64,"
    }
  ],
  "accessors": [
    {
      "bufferView": 0,
      "componentType": 5126,
      "count": 348,
      "max": [
        995,
        854,
        146.36346435546875
      ],
      "min": [
        196,
        0,
        0
      ],
      "type": "VEC3"
    },
    {
      "bufferView": 1,
      "componentType": 5126,
      "count": 348,
      "max": [
        0.9994980096817017,
        0.9997847676277161
      ],
      "min": [
        0.1972893476486206,
        0.6322004795074463
      ],
      "type": "VEC2"
    },
    {
      "bufferView": 2,
      "componentType": 5126,
      "count": 348,
      "max": [
        1,
        1,
        1
      ],
      "min": [
        -1,
        -1,
        -1
      ],
      "type": "VEC3"
    },
    {
      "bufferView": 3,
      "componentType": 5126,
      "count": 1488,
      "max": [
        476,
        2322,
        241.66098022460938
      ],
      "min": [
        0,
        450,
        0
      ],
      "type": "VEC3"
    },
    {
      "bufferView": 4,
      "componentType": 5126,
      "count": 1488,
      "max": [
        0.47841379046440125,
        0.8060927987098694
      ],
      "min": [
        0.0005022443947382271,
        0.00033420976251363754
      ],
      "type": "VEC2"
    },
    {
      "bufferView": 5,
      "componentType": 5126,
      "count": 1488,
      "max": [
        0.9996045827865601,
        0.6991953253746033,
        1
      ],
      "min": [
        -0.9996111989021301,
        -0.7570159435272217,
        -1
      ],
      "type": "VEC3"
    },
    {
      "bufferView": 6,
      "componentType": 5126,
      "count": 1488,
      "max": [
        515,
        2194,
        218.47866821289062
      ],
      "min": [
        125,
        492,
        0
      ],
      "type": "VEC3"
    },
    {
      "bufferView": 7,
      "componentType": 5126,
      "count": 1488,
      "max": [
        0.5175703763961792,
        0.7880148887634277
      ],
      "min": [
        0.12600421905517578,
        0.05542881414294243
      ],
      "type": "VEC2"
    },
    {
      "bufferView": 8,
      "componentType": 5126,
      "count": 1488,
      "max": [
        0.9994593858718872,
        0.6908574104309082,
        1
      ],
      "min": [
        -0.9995900988578796,
        -0.7064929008483887,
        -1
      ],
      "type": "VEC3"
    },
    {
      "bufferView": 9,
      "componentType": 5126,
      "count": 1488,
      "max": [
        618,
        2049,
        196.09637451171875
      ],
      "min": [
        229,
        531,
        0
      ],
      "type": "VEC3"
    },
    {
      "bufferView": 10,
      "componentType": 5126,
      "count": 1488,
      "max": [
        0.6209840178489685,
        0.7712282538414001
      ],
      "min": [
        0.23042187094688416,
        0.11784067004919052
      ],
      "type": "VEC2"
    },
    {
      "bufferView": 11,
      "componentType": 5126,
      "count": 1488,
      "max": [
        0.9995355606079102,
        0.6898794770240784,
        1
      ],
      "min": [
        -0.9995396137237549,
        -0.6890053749084473,
        -1
      ],
      "type": "VEC3"
    },
    {
      "bufferView": 12,
      "componentType": 5126,
      "count": 1488,
      "max": [
        737,
        1944,
        178.82843017578125
      ],
      "min": [
        345,
        570,
        0
      ],
      "type": "VEC3"
    },
    {
      "bufferView": 13,
      "componentType": 5126,
      "count": 1488,
      "max": [
        0.7404618859291077,
        0.7544416189193726
      ],
      "min": [
        0.3468877077102661,
        0.16303546726703644
      ],
      "type": "VEC2"
    },
    {
      "bufferView": 14,
      "componentType": 5126,
      "count": 1488,
      "max": [
        0.9997022747993469,
        0.6727260947227478,
        1
      ],
      "min": [
        -0.9996321201324463,
        -0.7158521413803101,
        -1
      ],
      "type": "VEC3"
    }
  ],
  "materials": [
    {
      "pbrMetallicRoughness": {
        "baseColorFactor": [
          1,
          0,
          0.16470588235294117,
          1
        ],
        "metallicFactor": 0,
        "roughnessFactor": 1
      }
    },
    {
      "pbrMetallicRoughness": {
        "baseColorFactor": [
          0.13725490196078433,
          0.13725490196078433,
          0.13725490196078433,
          1
        ],
        "metallicFactor": 0,
        "roughnessFactor": 1
      }
    },
    {
      "pbrMetallicRoughness": {
        "baseColorFactor": [
          0.13725490196078433,
          0.13725490196078433,
          0.13725490196078433,
          1
        ],
        "metallicFactor": 0,
        "roughnessFactor": 1
      }
    },
    {
      "pbrMetallicRoughness": {
        "baseColorFactor": [
          0.13725490196078433,
          0.13725490196078433,
          0.13725490196078433,
          1
        ],
        "metallicFactor": 0,
        "roughnessFactor": 1
      }
    },
    {
      "pbrMetallicRoughness": {
        "baseColorFactor": [
          0.13725490196078433,
          0.13725490196078433,
          0.13725490196078433,
          1
        ],
        "metallicFactor": 0,
        "roughnessFactor": 1
      }
    }
  ],
  "meshes": [
    {
      "primitives": [
        {
          "mode": 4,
          "attributes": {
            "POSITION": 0,
            "TEXCOORD_0": 1,
            "NORMAL": 2
          },
          "extras": {
            "isUVNormalized": true
          },
          "material": 0
        }
      ]
    },
    {
      "primitives": [
        {
          "mode": 4,
          "attributes": {
            "POSITION": 3,
            "TEXCOORD_0": 4,
            "NORMAL": 5
          },
          "extras": {
            "isUVNormalized": true
          },
          "material": 1
        }
      ]
    },
    {
      "primitives": [
        {
          "mode": 4,
          "attributes": {
            "POSITION": 6,
            "TEXCOORD_0": 7,
            "NORMAL": 8
          },
          "extras": {
            "isUVNormalized": true
          },
          "material": 2
        }
      ]
    },
    {
      "primitives": [
        {
          "mode": 4,
          "attributes": {
            "POSITION": 9,
            "TEXCOORD_0": 10,
            "NORMAL": 11
          },
          "extras": {
            "isUVNormalized": true
          },
          "material": 3
        }
      ]
    },
    {
      "primitives": [
        {
          "mode": 4,
          "attributes": {
            "POSITION": 12,
            "TEXCOORD_0": 13,
            "NORMAL": 14
          },
          "extras": {
            "isUVNormalized": true
          },
          "material": 4
        }
      ]
    }
  ]
}