{
  "asset": {
    "version": "2.0",
    "generator": "THREE.GLTFExporter"
  },
  "scenes": [
    {
      "name": "AuxScene",
      "nodes": [
        9
      ]
    }
  ],
  "scene": 0,
  "nodes": [
    {
      "mesh": 0
    },
    {
      "children": [
        0
      ]
    },
    {
      "children": [
        1
      ]
    },
    {
      "mesh": 1
    },
    {
      "children": [
        3
      ]
    },
    {
      "matrix": [
        1,
        0,
        0,
        0,
        0,
        1,
        0,
        0,
        0,
        0,
        1,
        0,
        0,
        0,
        12.448669626653112,
        1
      ],
      "children": [
        4
      ]
    },
    {
      "mesh": 2
    },
    {
      "children": [
        6
      ]
    },
    {
      "matrix": [
        1,
        0,
        0,
        0,
        0,
        1,
        0,
        0,
        0,
        0,
        1,
        0,
        0,
        0,
        26.69050685873192,
        1
      ],
      "children": [
        7
      ]
    },
    {
      "matrix": [
        0.0718438957033679,
        0,
        0,
        0,
        0,
        -0.0718438957033679,
        0,
        0,
        0,
        0,
        0.0718438957033679,
        0,
        -4.059180107240286,
        2.873755828134716,
        0,
        1
      ],
      "extras": {
        "svgImageTarget": {
          "width": 512,
          "height": 363,
          "depth": 1,
          "scissor": {
            "x": 0,
            "y": 0,
            "z": 512,
            "w": 363
          },
          "scissorTest": false,
          "viewport": {
            "x": 0,
            "y": 0,
            "z": 512,
            "w": 363
          },
          "texture": {
            "metadata": {
              "version": 4.5,
              "type": "Texture",
              "generator": "Texture.toJSON"
            },
            "uuid": "0E519366-41C2-423F-8B74-F6A66C1D6B28",
            "name": "",
            "mapping": 300,
            "repeat": [
              1,
              1
            ],
            "offset": [
              0,
              0
            ],
            "center": [
              0,
              0
            ],
            "rotation": 0,
            "wrap": [
              1001,
              1001
            ],
            "format": 1023,
            "type": 1009,
            "encoding": 3000,
            "minFilter": 1003,
            "magFilter": 1006,
            "anisotropy": 1,
            "flipY": true,
            "premultiplyAlpha": false,
            "unpackAlignment": 4,
            "image": "26A74F1E-3042-4C69-948B-49FD16F1981F"
          },
          "depthBuffer": false,
          "stencilBuffer": false,
          "depthTexture": null,
          "_listeners": {
            "dispose": [
              null
            ]
          }
        }
      },
      "children": [
        2,
        5,
        8
      ]
    }
  ],
  "bufferViews": [
    {
      "buffer": 0,
      "byteOffset": 0,
      "byteLength": 17136,
      "target": 34962,
      "byteStride": 12
    },
    {
      "buffer": 0,
      "byteOffset": 17136,
      "byteLength": 11424,
      "target": 34962,
      "byteStride": 8
    },
    {
      "buffer": 0,
      "byteOffset": 28560,
      "byteLength": 17136,
      "target": 34962,
      "byteStride": 12
    },
    {
      "buffer": 0,
      "byteOffset": 45696,
      "byteLength": 17136,
      "target": 34962,
      "byteStride": 12
    },
    {
      "buffer": 0,
      "byteOffset": 62832,
      "byteLength": 11424,
      "target": 34962,
      "byteStride": 8
    },
    {
      "buffer": 0,
      "byteOffset": 74256,
      "byteLength": 17136,
      "target": 34962,
      "byteStride": 12
    },
    {
      "buffer": 0,
      "byteOffset": 91392,
      "byteLength": 17136,
      "target": 34962,
      "byteStride": 12
    },
    {
      "buffer": 0,
      "byteOffset": 108528,
      "byteLength": 11424,
      "target": 34962,
      "byteStride": 8
    },
    {
      "buffer": 0,
      "byteOffset": 119952,
      "byteLength": 17136,
      "target": 34962,
      "byteStride": 12
    }
  ],
  "buffers": [
    {
      "byteLength": 137088,
      "uri": "data:application/octet-stream;base64,"
    }
  ],
  "accessors": [
    {
      "bufferView": 0,
      "componentType": 5126,
      "count": 1428,
      "max": [
        113,
        80,
        12.551545143127441
      ],
      "min": [
        43,
        10,
        0
      ],
      "type": "VEC3"
    },
    {
      "bufferView": 1,
      "componentType": 5126,
      "count": 1428,
      "max": [
        0.9956042170524597,
        0.8703600168228149
      ],
      "min": [
        0.38158130645751953,
        0.006186620332300663
      ],
      "type": "VEC2"
    },
    {
      "bufferView": 2,
      "componentType": 5126,
      "count": 1428,
      "max": [
        0.9977446794509888,
        0.9977446794509888,
        1
      ],
      "min": [
        -0.9977447390556335,
        -0.9977446794509888,
        -1
      ],
      "type": "VEC3"
    },
    {
      "bufferView": 3,
      "componentType": 5126,
      "count": 1428,
      "max": [
        94,
        80,
        14.31931209564209
      ],
      "min": [
        14,
        0,
        0
      ],
      "type": "VEC3"
    },
    {
      "bufferView": 4,
      "componentType": 5126,
      "count": 1428,
      "max": [
        0.8289408683776855,
        0.9938133955001831
      ],
      "min": [
        0.12720037996768951,
        0.006186620332300663
      ],
      "type": "VEC2"
    },
    {
      "bufferView": 5,
      "componentType": 5126,
      "count": 1428,
      "max": [
        0.9977447390556335,
        0.9977447390556335,
        1
      ],
      "min": [
        -0.9977446794509888,
        -0.9977446794509888,
        -1
      ],
      "type": "VEC3"
    },
    {
      "bufferView": 6,
      "componentType": 5126,
      "count": 1428,
      "max": [
        60,
        80,
        10.783778190612793
      ],
      "min": [
        0,
        20,
        0
      ],
      "type": "VEC3"
    },
    {
      "bufferView": 7,
      "componentType": 5126,
      "count": 1428,
      "max": [
        0.5307011604309082,
        0.7469066977500916
      ],
      "min": [
        0.004395791795104742,
        0.006186620332300663
      ],
      "type": "VEC2"
    },
    {
      "bufferView": 8,
      "componentType": 5126,
      "count": 1428,
      "max": [
        0.9977446794509888,
        0.9977446794509888,
        1
      ],
      "min": [
        -0.9977446794509888,
        -0.9977446794509888,
        -1
      ],
      "type": "VEC3"
    }
  ],
  "materials": [
    {
      "pbrMetallicRoughness": {
        "baseColorFactor": [
          0,
          0.5647058823529412,
          0.40784313725490196,
          1
        ],
        "metallicFactor": 0,
        "roughnessFactor": 1
      }
    },
    {
      "pbrMetallicRoughness": {
        "baseColorFactor": [
          0,
          0.7647058823529411,
          0.49019607843137253,
          1
        ],
        "metallicFactor": 0,
        "roughnessFactor": 1
      }
    },
    {
      "pbrMetallicRoughness": {
        "baseColorFactor": [
          0,
          0.8901960784313725,
          0.611764705882353,
          1
        ],
        "metallicFactor": 0,
        "roughnessFactor": 1
      }
    }
  ],
  "meshes": [
    {
      "primitives": [
        {
          "mode": 4,
          "attributes": {
            "POSITION": 0,
            "TEXCOORD_0": 1,
            "NORMAL": 2
          },
          "extras": {
            "isUVNormalized": true
          },
          "material": 0
        }
      ]
    },
    {
      "primitives": [
        {
          "mode": 4,
          "attributes": {
            "POSITION": 3,
            "TEXCOORD_0": 4,
            "NORMAL": 5
          },
          "extras": {
            "isUVNormalized": true
          },
          "material": 1
        }
      ]
    },
    {
      "primitives": [
        {
          "mode": 4,
          "attributes": {
            "POSITION": 6,
            "TEXCOORD_0": 7,
            "NORMAL": 8
          },
          "extras": {
            "isUVNormalized": true
          },
          "material": 2
        }
      ]
    }
  ]
}