{
  "asset": {
    "version": "2.0",
    "generator": "THREE.GLTFExporter"
  },
  "scenes": [
    {
      "name": "AuxScene",
      "nodes": [
        11
      ]
    }
  ],
  "scene": 0,
  "nodes": [
    {
      "mesh": 0
    },
    {
      "matrix": [
        1,
        0,
        0,
        0,
        0,
        1,
        0,
        0,
        0,
        0,
        0.9999999999999999,
        0,
        0,
        0,
        0,
        1
      ],
      "children": [
        0
      ]
    },
    {
      "children": [
        1
      ]
    },
    {
      "mesh": 1
    },
    {
      "mesh": 2
    },
    {
      "mesh": 3
    },
    {
      "children": [
        3,
        4,
        5
      ]
    },
    {
      "matrix": [
        1,
        0,
        0,
        0,
        0,
        1,
        0,
        0,
        0,
        0,
        1,
        0,
        0,
        0,
        31.242838885693995,
        1
      ],
      "children": [
        6
      ]
    },
    {
      "mesh": 4
    },
    {
      "matrix": [
        1,
        0,
        0,
        0,
        0,
        1,
        0,
        0,
        0,
        0,
        0.9999999999999999,
        0,
        0,
        0,
        0,
        1
      ],
      "children": [
        8
      ]
    },
    {
      "matrix": [
        1,
        0,
        0,
        0,
        0,
        1,
        0,
        0,
        0,
        0,
        1,
        0,
        0,
        0,
        43.43864440350926,
        1
      ],
      "children": [
        9
      ]
    },
    {
      "matrix": [
        0.03995211402396556,
        0,
        0,
        0,
        0,
        -0.03995211402396556,
        0,
        0,
        0,
        0,
        0.03995211402396556,
        0,
        -3.5077957332283525,
        3.5077957332283525,
        0,
        1
      ],
      "extras": {
        "svgImageTarget": {
          "width": 512,
          "height": 512,
          "depth": 1,
          "scissor": {
            "x": 0,
            "y": 0,
            "z": 512,
            "w": 512
          },
          "scissorTest": false,
          "viewport": {
            "x": 0,
            "y": 0,
            "z": 512,
            "w": 512
          },
          "texture": {
            "metadata": {
              "version": 4.5,
              "type": "Texture",
              "generator": "Texture.toJSON"
            },
            "uuid": "6806B1A0-64DF-4593-85D0-B931CD4E8FC4",
            "name": "",
            "mapping": 300,
            "repeat": [
              1,
              1
            ],
            "offset": [
              0,
              0
            ],
            "center": [
              0,
              0
            ],
            "rotation": 0,
            "wrap": [
              1001,
              1001
            ],
            "format": 1023,
            "type": 1009,
            "encoding": 3000,
            "minFilter": 1003,
            "magFilter": 1006,
            "anisotropy": 1,
            "flipY": true,
            "premultiplyAlpha": false,
            "unpackAlignment": 4,
            "image": "509826FA-4B2E-479C-9071-39AED534BE58"
          },
          "depthBuffer": false,
          "stencilBuffer": false,
          "depthTexture": null,
          "_listeners": {
            "dispose": [
              null
            ]
          }
        }
      },
      "children": [
        2,
        7,
        10
      ]
    }
  ],
  "bufferViews": [
    {
      "buffer": 0,
      "byteOffset": 0,
      "byteLength": 14832,
      "target": 34962,
      "byteStride": 12
    },
    {
      "buffer": 0,
      "byteOffset": 14832,
      "byteLength": 9888,
      "target": 34962,
      "byteStride": 8
    },
    {
      "buffer": 0,
      "byteOffset": 24720,
      "byteLength": 14832,
      "target": 34962,
      "byteStride": 12
    },
    {
      "buffer": 0,
      "byteOffset": 39552,
      "byteLength": 3816,
      "target": 34962,
      "byteStride": 12
    },
    {
      "buffer": 0,
      "byteOffset": 43368,
      "byteLength": 2544,
      "target": 34962,
      "byteStride": 8
    },
    {
      "buffer": 0,
      "byteOffset": 45912,
      "byteLength": 3816,
      "target": 34962,
      "byteStride": 12
    },
    {
      "buffer": 0,
      "byteOffset": 49728,
      "byteLength": 3816,
      "target": 34962,
      "byteStride": 12
    },
    {
      "buffer": 0,
      "byteOffset": 53544,
      "byteLength": 2544,
      "target": 34962,
      "byteStride": 8
    },
    {
      "buffer": 0,
      "byteOffset": 56088,
      "byteLength": 3816,
      "target": 34962,
      "byteStride": 12
    },
    {
      "buffer": 0,
      "byteOffset": 59904,
      "byteLength": 2736,
      "target": 34962,
      "byteStride": 12
    },
    {
      "buffer": 0,
      "byteOffset": 62640,
      "byteLength": 1824,
      "target": 34962,
      "byteStride": 8
    },
    {
      "buffer": 0,
      "byteOffset": 64464,
      "byteLength": 2736,
      "target": 34962,
      "byteStride": 12
    },
    {
      "buffer": 0,
      "byteOffset": 67200,
      "byteLength": 3456,
      "target": 34962,
      "byteStride": 12
    },
    {
      "buffer": 0,
      "byteOffset": 70656,
      "byteLength": 3456,
      "target": 34962,
      "byteStride": 12
    },
    {
      "buffer": 0,
      "byteOffset": 74112,
      "byteLength": 2304,
      "target": 34962,
      "byteStride": 8
    }
  ],
  "buffers": [
    {
      "byteLength": 76416,
      "uri": "data:application/octet-stream;base64,"
    }
  ],
  "accessors": [
    {
      "bufferView": 0,
      "componentType": 5126,
      "count": 1236,
      "max": [
        180.91043090820312,
        180.91043090820312,
        35.047027587890625
      ],
      "min": [
        -5.310426235198975,
        -5.310426235198975,
        -3.7550384998321533
      ],
      "type": "VEC3"
    },
    {
      "bufferView": 1,
      "componentType": 5126,
      "count": 1236,
      "max": [
        1.0260053873062134,
        1.0260053873062134
      ],
      "min": [
        -0.026005366817116737,
        -0.026005392894148827
      ],
      "type": "VEC2"
    },
    {
      "bufferView": 2,
      "componentType": 5126,
      "count": 1236,
      "max": [
        1,
        1,
        1
      ],
      "min": [
        -1,
        -1,
        -1
      ],
      "type": "VEC3"
    },
    {
      "bufferView": 3,
      "componentType": 5126,
      "count": 318,
      "max": [
        127.8010025024414,
        108.0999984741211,
        12.302099227905273
      ],
      "min": [
        103.9010009765625,
        67.49980163574219,
        0
      ],
      "type": "VEC3"
    },
    {
      "bufferView": 4,
      "componentType": 5126,
      "count": 318,
      "max": [
        0.7259762287139893,
        0.6146811842918396
      ],
      "min": [
        0.5909587740898132,
        0.38531994819641113
      ],
      "type": "VEC2"
    },
    {
      "bufferView": 5,
      "componentType": 5126,
      "count": 318,
      "max": [
        1,
        0.8192331194877625,
        1
      ],
      "min": [
        -1,
        -0.7893521189689636,
        -1
      ],
      "type": "VEC3"
    },
    {
      "bufferView": 6,
      "componentType": 5126,
      "count": 318,
      "max": [
        71.70079803466797,
        107.9000015258789,
        12.302099227905273
      ],
      "min": [
        47.80080032348633,
        67.49980163574219,
        0
      ],
      "type": "VEC3"
    },
    {
      "bufferView": 7,
      "componentType": 5126,
      "count": 318,
      "max": [
        0.4090513586997986,
        0.6146811842918396
      ],
      "min": [
        0.27403396368026733,
        0.38644978404045105
      ],
      "type": "VEC2"
    },
    {
      "bufferView": 8,
      "componentType": 5126,
      "count": 318,
      "max": [
        1,
        0.8192301392555237,
        1
      ],
      "min": [
        -1,
        -0.8192331194877625,
        -1
      ],
      "type": "VEC3"
    },
    {
      "bufferView": 9,
      "componentType": 5126,
      "count": 228,
      "max": [
        98.00080108642578,
        115.19999694824219,
        12.302099227905273
      ],
      "min": [
        78.20079803466797,
        60.299800872802734,
        0
      ],
      "type": "VEC3"
    },
    {
      "bufferView": 10,
      "componentType": 5126,
      "count": 228,
      "max": [
        0.5576270222663879,
        0.6553558707237244
      ],
      "min": [
        0.44577157497406006,
        0.3452101945877075
      ],
      "type": "VEC2"
    },
    {
      "bufferView": 11,
      "componentType": 5126,
      "count": 228,
      "max": [
        0.9805805087089539,
        1,
        1
      ],
      "min": [
        -0.9805805087089539,
        -1,
        -1
      ],
      "type": "VEC3"
    },
    {
      "bufferView": 12,
      "componentType": 5126,
      "count": 288,
      "max": [
        150.50904846191406,
        150.50904846191406,
        0
      ],
      "min": [
        25.090559005737305,
        25.090559005737305,
        0
      ],
      "type": "VEC3"
    },
    {
      "bufferView": 13,
      "componentType": 5126,
      "count": 288,
      "max": [
        0,
        0,
        1
      ],
      "min": [
        0,
        0,
        1
      ],
      "type": "VEC3"
    },
    {
      "bufferView": 14,
      "componentType": 5126,
      "count": 288,
      "max": [
        0.009643896482884884,
        0.9960053563117981
      ],
      "min": [
        0.003994632977992296,
        0.9903560876846313
      ],
      "type": "VEC2"
    }
  ],
  "materials": [
    {
      "pbrMetallicRoughness": {
        "baseColorFactor": [
          0.984313725490196,
          0.7372549019607844,
          0.0196078431372549,
          1
        ],
        "metallicFactor": 0,
        "roughnessFactor": 1
      }
    },
    {
      "pbrMetallicRoughness": {
        "metallicFactor": 0,
        "roughnessFactor": 1
      }
    },
    {
      "pbrMetallicRoughness": {
        "metallicFactor": 0.1,
        "roughnessFactor": 1
      }
    }
  ],
  "meshes": [
    {
      "primitives": [
        {
          "mode": 4,
          "attributes": {
            "POSITION": 0,
            "TEXCOORD_0": 1,
            "NORMAL": 2
          },
          "extras": {
            "isUVNormalized": true
          },
          "material": 0
        }
      ]
    },
    {
      "primitives": [
        {
          "mode": 4,
          "attributes": {
            "POSITION": 3,
            "TEXCOORD_0": 4,
            "NORMAL": 5
          },
          "extras": {
            "isUVNormalized": true
          },
          "material": 1
        }
      ]
    },
    {
      "primitives": [
        {
          "mode": 4,
          "attributes": {
            "POSITION": 6,
            "TEXCOORD_0": 7,
            "NORMAL": 8
          },
          "extras": {
            "isUVNormalized": true
          },
          "material": 1
        }
      ]
    },
    {
      "primitives": [
        {
          "mode": 4,
          "attributes": {
            "POSITION": 9,
            "TEXCOORD_0": 10,
            "NORMAL": 11
          },
          "extras": {
            "isUVNormalized": true
          },
          "material": 1
        }
      ]
    },
    {
      "primitives": [
        {
          "mode": 4,
          "attributes": {
            "POSITION": 12,
            "NORMAL": 13,
            "TEXCOORD_0": 14
          },
          "extras": {
            "isUVNormalized": true
          },
          "material": 2
        }
      ]
    }
  ]
}