<svg width="276" height="756" viewBox="0 0 276 756" fill="none" xmlns="http://www.w3.org/2000/svg">
<path d="M78 407C196.4 248.6 235.671 101.334 229.004 60.0009C217.633 -10.5 151.526 -14.0003 135.004 60.0009C103.137 202.732 151.317 230.701 205.004 306.001C277.013 407 218.07 574 212 592C134.117 822.969 64.792 765.328 5 646" stroke="#FF5D01" stroke-width="10"/>
<path d="M121.004 381.196C239.404 222.796 255.671 100.53 249.004 59.1962C237.633 -11.3047 181.526 -14.805 165.004 59.1962C133.137 201.927 181.317 229.896 235.004 305.196C307.013 406.195 248.07 573.195 242 591.195C164.117 822.165 94.792 764.524 35 645.195" stroke="#1020B4" stroke-width="10"/>
</svg>
