<?xml version="1.0" standalone="no"?>
<!DOCTYPE svg PUBLIC "-//W3C//DTD SVG 20010904//EN"
 "http://www.w3.org/TR/2001/REC-SVG-20010904/DTD/svg10.dtd">
<svg version="1.0" xmlns="http://www.w3.org/2000/svg"
 width="1256.000000pt" height="1256.000000pt" viewBox="0 0 1256.000000 1256.000000"
 preserveAspectRatio="xMidYMid meet">
<metadata>
Created by potrace 1.14, written by Peter Selinger 2001-2017
</metadata>
<g transform="translate(0.000000,1256.000000) scale(0.100000,-0.100000)"
fill="#000000" stroke="none">
<path d="M3465 12511 c-343 -130 -757 -390 -1112 -698 l-63 -55 0 -3569 0
-3569 160 0 160 0 0 1586 c0 1487 1 1586 17 1580 71 -28 504 -153 654 -189
412 -101 689 -137 1059 -137 476 0 879 73 1415 256 88 30 163 54 166 54 7 0
24 -3596 20 -4280 -7 -1484 -166 -2638 -443 -3223 -61 -128 -73 -105 104 -203
112 -61 120 -64 185 -64 l68 0 17 38 c81 184 105 243 144 361 227 686 345
1672 361 3012 l6 506 185 -246 c328 -436 650 -830 943 -1156 135 -150 528
-563 567 -595 9 -8 80 -75 157 -149 175 -168 452 -417 700 -628 260 -221 596
-493 609 -493 11 1 253 300 262 324 3 7 -46 53 -113 107 -1096 877 -1871 1661
-2642 2671 -202 266 -411 551 -407 555 2 3 116 -11 253 -31 676 -96 1183 -133
1678 -123 575 13 958 102 1208 281 197 141 358 400 456 738 l31 106 0 999 0
999 -39 154 c-106 419 -245 695 -420 834 -294 233 -779 407 -1363 488 -143 20
-206 22 -513 23 -283 0 -375 -3 -480 -18 -366 -51 -686 -133 -964 -249 -53
-22 -104 -42 -113 -45 -17 -5 -18 76 -18 1605 l0 1610 -162 114 c-522 365
-935 593 -1306 722 l-104 36 -611 -1 -612 0 -100 -38z m849 -311 c399 -38 859
-240 1451 -638 l160 -107 3 -1606 2 -1606 -97 -38 c-365 -140 -723 -237 -1064
-286 -222 -33 -633 -33 -863 -1 -356 50 -674 129 -1128 278 l-168 56 1 1606 0
1607 62 51 c251 209 567 419 774 515 310 144 577 196 867 169z m4028 -3874
c540 -64 1071 -254 1237 -442 154 -175 298 -712 341 -1272 14 -176 14 -570 0
-742 -42 -520 -188 -935 -378 -1073 -201 -147 -540 -210 -1122 -210 -565 -1
-1161 61 -1997 205 l-63 11 0 1584 0 1584 117 56 c355 167 710 266 1088 303
61 5 126 12 145 14 76 9 512 -4 632 -18z"/>
</g>
</svg>
