<svg width="667" height="150" viewBox="0 0 667 150" fill="none" xmlns="http://www.w3.org/2000/svg">
<path d="M602.616 67.5043C529.613 121.299 423.798 150 332.694 150C204.951 150 89.9495 102.765 2.94664 24.2088C-3.88869 18.0323 2.23535 9.61222 10.439 14.4249C104.334 69.0349 220.428 101.894 340.349 101.894C421.226 101.894 510.2 85.1641 592.007 50.4493C604.366 45.2007 614.701 58.5378 602.616 67.5043Z" fill="white"/>
<path d="M633.285 32.9064C623.986 20.9944 571.587 27.2766 548.066 30.0655C540.902 30.9409 539.809 24.7108 546.262 20.2295C587.996 -9.11604 656.474 -0.647352 664.46 9.18867C672.444 19.081 662.382 87.6601 623.164 120.393C617.147 125.42 611.404 122.742 614.085 116.078C622.893 94.109 642.638 44.8726 633.285 32.9064Z" fill="white"/>
</svg>
