<svg width="177" height="126" viewBox="0 0 177 126" fill="none" xmlns="http://www.w3.org/2000/svg">
<path d="M122.177 125.31C152.454 125.31 177 100.765 177 70.4867C177 40.2088 152.454 15.6637 122.177 15.6637C91.8986 15.6637 67.3535 40.2088 67.3535 70.4867C67.3535 100.765 91.8986 125.31 122.177 125.31Z" fill="#009068"/>
<path d="M84.5846 125.31C119.188 125.31 147.239 97.2582 147.239 62.6549C147.239 28.0515 119.188 0 84.5846 0C49.9812 0 21.9297 28.0515 21.9297 62.6549C21.9297 97.2582 49.9812 125.31 84.5846 125.31Z" fill="#00C37D"/>
<path d="M46.9911 125.31C72.9436 125.31 93.9823 104.271 93.9823 78.3186C93.9823 52.3661 72.9436 31.3275 46.9911 31.3275C21.0387 31.3275 0 52.3661 0 78.3186C0 104.271 21.0387 125.31 46.9911 125.31Z" fill="#00E39C"/>
</svg>
