{
  "asset": {
    "version": "2.0",
    "generator": "THREE.GLTFExporter"
  },
  "scenes": [
    {
      "name": "AuxScene",
      "nodes": [
        22
      ]
    }
  ],
  "scene": 0,
  "nodes": [
    {},
    {
      "mesh": 0
    },
    {
      "children": [
        1
      ]
    },
    {
      "matrix": [
        1,
        0,
        0,
        0,
        0,
        1,
        0,
        0,
        0,
        0,
        1,
        0,
        0,
        0,
        47.0517201374142,
        1
      ],
      "children": [
        2
      ]
    },
    {
      "mesh": 1
    },
    {
      "children": [
        4
      ]
    },
    {
      "matrix": [
        1,
        0,
        0,
        0,
        0,
        1,
        0,
        0,
        0,
        0,
        1,
        0,
        0,
        0,
        47.09193295193244,
        1
      ],
      "children": [
        5
      ]
    },
    {
      "mesh": 2
    },
    {
      "children": [
        7
      ]
    },
    {
      "matrix": [
        1,
        0,
        0,
        0,
        0,
        1,
        0,
        0,
        0,
        0,
        1,
        0,
        0,
        0,
        88.82176768637812,
        1
      ],
      "children": [
        8
      ]
    },
    {
      "mesh": 3
    },
    {
      "children": [
        10
      ]
    },
    {
      "matrix": [
        1,
        0,
        0,
        0,
        0,
        1,
        0,
        0,
        0,
        0,
        1,
        0,
        0,
        0,
        47.13089574812486,
        1
      ],
      "children": [
        11
      ]
    },
    {
      "mesh": 4
    },
    {
      "children": [
        13
      ]
    },
    {
      "matrix": [
        1,
        0,
        0,
        0,
        0,
        1,
        0,
        0,
        0,
        0,
        1,
        0,
        0,
        0,
        88.74493966271261,
        1
      ],
      "children": [
        14
      ]
    },
    {
      "mesh": 5
    },
    {
      "children": [
        16
      ]
    },
    {
      "matrix": [
        1,
        0,
        0,
        0,
        0,
        1,
        0,
        0,
        0,
        0,
        1,
        0,
        0,
        0,
        119.87176330705393,
        1
      ],
      "children": [
        17
      ]
    },
    {
      "mesh": 6
    },
    {
      "children": [
        19
      ]
    },
    {
      "matrix": [
        1,
        0,
        0,
        0,
        0,
        1,
        0,
        0,
        0,
        0,
        1,
        0,
        0,
        0,
        88.81146441592028,
        1
      ],
      "children": [
        20
      ]
    },
    {
      "matrix": [
        0.026386985789842356,
        0,
        0,
        0,
        0,
        -0.026386985789842356,
        0,
        0,
        0,
        0,
        0.026386985789842356,
        0,
        -3.2253999372228632,
        3.7695654872525353,
        0,
        1
      ],
      "extras": {
        "svgImageTarget": {
          "width": 448,
          "height": 512,
          "depth": 1,
          "scissor": {
            "x": 0,
            "y": 0,
            "z": 448,
            "w": 512
          },
          "scissorTest": false,
          "viewport": {
            "x": 0,
            "y": 0,
            "z": 448,
            "w": 512
          },
          "texture": {
            "metadata": {
              "version": 4.5,
              "type": "Texture",
              "generator": "Texture.toJSON"
            },
            "uuid": "39EBA53A-9CD3-4136-97AB-3D904E3115A0",
            "name": "",
            "mapping": 300,
            "repeat": [
              1,
              1
            ],
            "offset": [
              0,
              0
            ],
            "center": [
              0,
              0
            ],
            "rotation": 0,
            "wrap": [
              1001,
              1001
            ],
            "format": 1023,
            "type": 1009,
            "encoding": 3000,
            "minFilter": 1003,
            "magFilter": 1006,
            "anisotropy": 1,
            "flipY": true,
            "premultiplyAlpha": false,
            "unpackAlignment": 4,
            "image": "7B75EFA4-EAF0-4F8B-BECF-F3B055E972D0"
          },
          "depthBuffer": false,
          "stencilBuffer": false,
          "depthTexture": null,
          "_listeners": {
            "dispose": [
              null
            ]
          }
        }
      },
      "children": [
        0,
        3,
        6,
        9,
        12,
        15,
        18,
        21
      ]
    }
  ],
  "bufferViews": [
    {
      "buffer": 0,
      "byteOffset": 0,
      "byteLength": 23256,
      "target": 34962,
      "byteStride": 12
    },
    {
      "buffer": 0,
      "byteOffset": 23256,
      "byteLength": 15504,
      "target": 34962,
      "byteStride": 8
    },
    {
      "buffer": 0,
      "byteOffset": 38760,
      "byteLength": 23256,
      "target": 34962,
      "byteStride": 12
    },
    {
      "buffer": 0,
      "byteOffset": 62016,
      "byteLength": 23256,
      "target": 34962,
      "byteStride": 12
    },
    {
      "buffer": 0,
      "byteOffset": 85272,
      "byteLength": 15504,
      "target": 34962,
      "byteStride": 8
    },
    {
      "buffer": 0,
      "byteOffset": 100776,
      "byteLength": 23256,
      "target": 34962,
      "byteStride": 12
    },
    {
      "buffer": 0,
      "byteOffset": 124032,
      "byteLength": 1296,
      "target": 34962,
      "byteStride": 12
    },
    {
      "buffer": 0,
      "byteOffset": 125328,
      "byteLength": 864,
      "target": 34962,
      "byteStride": 8
    },
    {
      "buffer": 0,
      "byteOffset": 126192,
      "byteLength": 1296,
      "target": 34962,
      "byteStride": 12
    },
    {
      "buffer": 0,
      "byteOffset": 127488,
      "byteLength": 9936,
      "target": 34962,
      "byteStride": 12
    },
    {
      "buffer": 0,
      "byteOffset": 137424,
      "byteLength": 6624,
      "target": 34962,
      "byteStride": 8
    },
    {
      "buffer": 0,
      "byteOffset": 144048,
      "byteLength": 9936,
      "target": 34962,
      "byteStride": 12
    },
    {
      "buffer": 0,
      "byteOffset": 153984,
      "byteLength": 132768,
      "target": 34962,
      "byteStride": 12
    },
    {
      "buffer": 0,
      "byteOffset": 286752,
      "byteLength": 88512,
      "target": 34962,
      "byteStride": 8
    },
    {
      "buffer": 0,
      "byteOffset": 375264,
      "byteLength": 132768,
      "target": 34962,
      "byteStride": 12
    },
    {
      "buffer": 0,
      "byteOffset": 508032,
      "byteLength": 1296,
      "target": 34962,
      "byteStride": 12
    },
    {
      "buffer": 0,
      "byteOffset": 509328,
      "byteLength": 864,
      "target": 34962,
      "byteStride": 8
    },
    {
      "buffer": 0,
      "byteOffset": 510192,
      "byteLength": 1296,
      "target": 34962,
      "byteStride": 12
    },
    {
      "buffer": 0,
      "byteOffset": 511488,
      "byteLength": 2016,
      "target": 34962,
      "byteStride": 12
    },
    {
      "buffer": 0,
      "byteOffset": 513504,
      "byteLength": 1344,
      "target": 34962,
      "byteStride": 8
    },
    {
      "buffer": 0,
      "byteOffset": 514848,
      "byteLength": 2016,
      "target": 34962,
      "byteStride": 12
    }
  ],
  "buffers": [
    {
      "byteLength": 516864,
      "uri": "data:application/octet-stream;base64,"
    }
  ],
  "accessors": [
    {
      "bufferView": 0,
      "componentType": 5126,
      "count": 1938,
      "max": [
        244.468994140625,
        285.7139892578125,
        41.775455474853516
      ],
      "min": [
        0.22070500254631042,
        59.678001403808594,
        0
      ],
      "type": "VEC3"
    },
    {
      "bufferView": 1,
      "componentType": 5126,
      "count": 1938,
      "max": [
        0.9979664087295532,
        0.7883085608482361
      ],
      "min": [
        0.0045798663049936295,
        0.0017399563221260905
      ],
      "type": "VEC2"
    },
    {
      "bufferView": 2,
      "componentType": 5126,
      "count": 1938,
      "max": [
        1,
        1,
        1
      ],
      "min": [
        -1,
        -1,
        -1
      ],
      "type": "VEC3"
    },
    {
      "bufferView": 3,
      "componentType": 5126,
      "count": 1938,
      "max": [
        244.2469940185547,
        95.49819946289062,
        26.535816192626953
      ],
      "min": [
        56.16059875488281,
        0,
        0
      ],
      "type": "VEC3"
    },
    {
      "bufferView": 4,
      "componentType": 5126,
      "count": 1938,
      "max": [
        0.9970635175704956,
        0.9959782958030701
      ],
      "min": [
        0.23209400475025177,
        0.6636600494384766
      ],
      "type": "VEC2"
    },
    {
      "bufferView": 5,
      "componentType": 5126,
      "count": 1938,
      "max": [
        1,
        1,
        1
      ],
      "min": [
        -1,
        -1,
        -1
      ],
      "type": "VEC3"
    },
    {
      "bufferView": 6,
      "componentType": 5126,
      "count": 108,
      "max": [
        177.56900024414062,
        118.18299865722656,
        2.049467086791992
      ],
      "min": [
        167.56399536132812,
        107.61799621582031,
        0
      ],
      "type": "VEC3"
    },
    {
      "bufferView": 7,
      "componentType": 5126,
      "count": 108,
      "max": [
        0.7258762717247009,
        0.6214851140975952
      ],
      "min": [
        0.6851847171783447,
        0.5847206115722656
      ],
      "type": "VEC2"
    },
    {
      "bufferView": 8,
      "componentType": 5126,
      "count": 108,
      "max": [
        0.9990230202674866,
        0.9574911594390869,
        1
      ],
      "min": [
        -0.7987252473831177,
        -0.9665228128433228,
        -1
      ],
      "type": "VEC3"
    },
    {
      "bufferView": 9,
      "componentType": 5126,
      "count": 828,
      "max": [
        63.53889846801758,
        66.52200317382812,
        11.769902229309082
      ],
      "min": [
        0.2612299919128418,
        0.09228520095348358,
        0
      ],
      "type": "VEC3"
    },
    {
      "bufferView": 10,
      "componentType": 5126,
      "count": 828,
      "max": [
        0.2621024250984192,
        0.9956571459770203
      ],
      "min": [
        0.0047446866519749165,
        0.7644925117492676
      ],
      "type": "VEC2"
    },
    {
      "bufferView": 11,
      "componentType": 5126,
      "count": 828,
      "max": [
        1,
        1,
        1
      ],
      "min": [
        -0.7241678833961487,
        -0.6904559135437012,
        -1
      ],
      "type": "VEC3"
    },
    {
      "bufferView": 12,
      "componentType": 5126,
      "count": 11064,
      "max": [
        209.58587646484375,
        232.02394104003906,
        31.16534423828125
      ],
      "min": [
        34.264068603515625,
        56.75233840942383,
        0
      ],
      "type": "VEC3"
    },
    {
      "bufferView": 13,
      "componentType": 5126,
      "count": 11064,
      "max": [
        0.8560926914215088,
        0.7984893918037415
      ],
      "min": [
        0.14303822815418243,
        0.18857261538505554
      ],
      "type": "VEC2"
    },
    {
      "bufferView": 14,
      "componentType": 5126,
      "count": 11064,
      "max": [
        1,
        0.999966561794281,
        1
      ],
      "min": [
        -0.9999992847442627,
        -0.9999680519104004,
        -1
      ],
      "type": "VEC3"
    },
    {
      "bufferView": 15,
      "componentType": 5126,
      "count": 108,
      "max": [
        208.23300170898438,
        242.00399780273438,
        14.5983304977417
      ],
      "min": [
        131.13600158691406,
        156.9550018310547,
        0
      ],
      "type": "VEC3"
    },
    {
      "bufferView": 16,
      "componentType": 5126,
      "count": 108,
      "max": [
        0.8505903482437134,
        0.4498003423213959
      ],
      "min": [
        0.5370277762413025,
        0.15384364128112793
      ],
      "type": "VEC2"
    },
    {
      "bufferView": 17,
      "componentType": 5126,
      "count": 108,
      "max": [
        0.7467606067657471,
        0.7467517852783203,
        1
      ],
      "min": [
        -0.7467516660690308,
        -0.7467455267906189,
        -1
      ],
      "type": "VEC3"
    },
    {
      "bufferView": 18,
      "componentType": 5126,
      "count": 168,
      "max": [
        232.25399780273438,
        267.05499267578125,
        5.954145908355713
      ],
      "min": [
        200.0260009765625,
        235.23800659179688,
        0
      ],
      "type": "VEC3"
    },
    {
      "bufferView": 19,
      "componentType": 5126,
      "count": 168,
      "max": [
        0.9482865929603577,
        0.17738819122314453
      ],
      "min": [
        0.8172115087509155,
        0.0666702389717102
      ],
      "type": "VEC2"
    },
    {
      "bufferView": 20,
      "componentType": 5126,
      "count": 168,
      "max": [
        0.9941226840019226,
        0.9999837875366211,
        1
      ],
      "min": [
        -0.9941226840019226,
        -0.9999834299087524,
        -1
      ],
      "type": "VEC3"
    }
  ],
  "materials": [
    {
      "pbrMetallicRoughness": {
        "baseColorFactor": [
          0,
          0.3254901960784314,
          1,
          1
        ],
        "metallicFactor": 0,
        "roughnessFactor": 1
      }
    },
    {
      "pbrMetallicRoughness": {
        "baseColorFactor": [
          0,
          0.3254901960784314,
          1,
          1
        ],
        "metallicFactor": 0,
        "roughnessFactor": 1
      }
    },
    {
      "pbrMetallicRoughness": {
        "baseColorFactor": [
          0,
          0.3254901960784314,
          1,
          1
        ],
        "metallicFactor": 0,
        "roughnessFactor": 1
      }
    },
    {
      "pbrMetallicRoughness": {
        "baseColorFactor": [
          0,
          0.29411764705882354,
          0.8313725490196079,
          1
        ],
        "metallicFactor": 0,
        "roughnessFactor": 1
      }
    },
    {
      "pbrMetallicRoughness": {
        "metallicFactor": 0,
        "roughnessFactor": 1
      }
    },
    {
      "pbrMetallicRoughness": {
        "metallicFactor": 0,
        "roughnessFactor": 1
      }
    },
    {
      "pbrMetallicRoughness": {
        "metallicFactor": 0,
        "roughnessFactor": 1
      }
    }
  ],
  "meshes": [
    {
      "primitives": [
        {
          "mode": 4,
          "attributes": {
            "POSITION": 0,
            "TEXCOORD_0": 1,
            "NORMAL": 2
          },
          "extras": {
            "isUVNormalized": true
          },
          "material": 0
        }
      ]
    },
    {
      "primitives": [
        {
          "mode": 4,
          "attributes": {
            "POSITION": 3,
            "TEXCOORD_0": 4,
            "NORMAL": 5
          },
          "extras": {
            "isUVNormalized": true
          },
          "material": 1
        }
      ]
    },
    {
      "primitives": [
        {
          "mode": 4,
          "attributes": {
            "POSITION": 6,
            "TEXCOORD_0": 7,
            "NORMAL": 8
          },
          "extras": {
            "isUVNormalized": true
          },
          "material": 2
        }
      ]
    },
    {
      "primitives": [
        {
          "mode": 4,
          "attributes": {
            "POSITION": 9,
            "TEXCOORD_0": 10,
            "NORMAL": 11
          },
          "extras": {
            "isUVNormalized": true
          },
          "material": 3
        }
      ]
    },
    {
      "primitives": [
        {
          "mode": 4,
          "attributes": {
            "POSITION": 12,
            "TEXCOORD_0": 13,
            "NORMAL": 14
          },
          "extras": {
            "isUVNormalized": true
          },
          "material": 4
        }
      ]
    },
    {
      "primitives": [
        {
          "mode": 4,
          "attributes": {
            "POSITION": 15,
            "TEXCOORD_0": 16,
            "NORMAL": 17
          },
          "extras": {
            "isUVNormalized": true
          },
          "material": 5
        }
      ]
    },
    {
      "primitives": [
        {
          "mode": 4,
          "attributes": {
            "POSITION": 18,
            "TEXCOORD_0": 19,
            "NORMAL": 20
          },
          "extras": {
            "isUVNormalized": true
          },
          "material": 6
        }
      ]
    }
  ]
}